<?xml version="1.0" encoding="utf-8"?>
<!-- Generator: Adobe Illustrator 23.0.1, SVG Export Plug-In . SVG Version: 6.00 Build 0)  -->
<svg version="1.1" id="Layer_1" xmlns="http://www.w3.org/2000/svg" xmlns:xlink="http://www.w3.org/1999/xlink" x="0px" y="0px"
	 viewBox="0 0 217.1 293" style="enable-background:new 0 0 217.1 293;" xml:space="preserve">
<style type="text/css">
	.st0{fill:#204767;}
</style>
<g>
	<path class="st0" d="M202.9,126.4c-1.6-3.6-4.2-6.5-7.9-8.1c-3-1.7-2.5-8.6-2.8-11.6c-0.6-5-1.3-10-2.2-14.9
		c-2.1-12.2-5.1-24.3-9.8-35.7c-4.4-10.5-10.3-20.3-19.7-27.1c-9.9-7.2-22-11.2-33.8-13.5c-24.8-4.8-53.5-3.5-75.9,9.1
		C40,30.5,30.4,38.3,17.5,39c-5.1,0.2-9.9,3.2-6.6,8.5c4.2,6.8,8.1,13.4,10.2,21.2c1,4,1.6,8.1,1.3,12.2c-0.3,4.4-1.6,8.7-1.9,13.2
		c-0.6,8.1,0.1,16.4,1.6,24.4c0.6,3,1.2,5.9,2,8.8c0.8,3.2,2.3,5.8,0.6,8.8c-2.4,4.3-3,8.1-2.6,13.2c0.5,8,2.9,15.7,6.3,22.9
		c1.1,2.3,2.2,4.5,3.5,6.7c1.4,2.4,1.8,4.2,1.9,7c0.2,3.1,0.5,6.4,1.6,9.3c0.8,2.3,2.4,4.1,3.2,6.5c0.9,3,1.7,5.9,2.8,8.8
		c10.1,26.3,32.2,50.8,58.1,62.1c11.8,5.1,24.9,7.1,37.4,3.4c12.1-3.6,21.7-11.5,29.5-21.3c10.3-13,18.4-27.8,23.1-43.7
		c2.1-7.2,3.6-14.6,3.9-22.1c0.1-1.9,0-3.7,1.4-5.1c0.7-0.7,1.7-1.1,2.4-1.8c1.8-1.8,2.8-4,3.6-6.4c2.1-6.6,3.2-13.9,4.1-20.8
		C205.9,145.8,206.8,135,202.9,126.4z M157.4,125c-5.4-1.2-30.5,0.7-34.1,4.1c-3.7,3.4-3.2,4-1.2,5c1.9,1.1,3.9,3,3.9,3
		s-8.7,7-10.2,11c0,0-11.1-0.7-19.6,1.7c-1.1-3-5.5-12.4-16.7-15.7c-13.3-3.9-36.7,7.7-38,8.3c0,0-0.8,5.7,3.7,7.5
		c0,0-2.8,3.3-2.8,8.8v2.2c0,0-4,0.2-5.7-2.7c-1.7-2.9-1.7-10.6-1.7-12.8c0-1.9-1.8-6.2-3.8-7.5c0.3-0.4,0.5-0.9,0.8-1.3
		c1.4-2.2,1.6-3.8,1.1-6.1c3.1-4.4,6.9-13.3,5.4-29.9C36,73.8,65.7,69.8,65.7,69.8C47.4,72.7,34.3,66,26.3,59.7
		c-1.8-4.5-4.1-8.8-6.8-12.8c-0.4-0.6-1.7-2.5-2.9-3.2c0.5,0,0.9,0.1,1,0c0.3,0,0.5,0,0.8-0.1c46.3,40.8,87.3,9,114.6,10.4
		c27.8,1.5,31.4,36.9,31.4,36.9s10.5,12.6,16.6,31.1l-7.6,22.1l-2.4,0.2c0,0-7.1-5.8-8.5-6.8c0,0,8.3,0.3,8.8-3.5
		C171.7,130.3,162.7,126.2,157.4,125z M77.6,194.6c-3.8,2.9-5.8,15.2-15,9.7c-5.5-7.9-9.5-18-11.4-23.3c2.2,2.1,5,3.9,8.5,5.1
		c0,0-11.3-10.5-12.3-22.7c-1-12.2,10.6-17.5,18.4-18c7.8-0.5,18,0.2,22.7,8.8c0,0,0.6,0.7,1.2,1.7c-0.4-0.2-0.9-0.4-1.5-0.6
		c-5-2.1-10.4-6-19.1-6.5c-8.7-0.5-15.9,7.8-15.9,7.8l-1.6,1.8c0,0,2.8-0.2,5.1,0.5c2.3,0.7,4.3,2.7,8.3,4.5c4,1.8,7.8,0.2,11.5-0.7
		c3.7-1,7.1-3.3,7.1-3.3c-1.7,1.1-10.5,2.7-15.5,1.8c-5-0.9-4.9-3.6-4.9-3.6c2,0.3,10.5,0.1,13.6-0.2c3.2-0.2,9.4,0.5,10.7,0
		c0.6-0.2,1.7-0.4,2.7-0.6c0.6,1.3,1.2,2.8,1.1,4.4c-0.2,3.7,2.6,5.1,2.6,5.1s2.4,15.9-13.9,22.3C80,188.8,81.4,191.7,77.6,194.6z
		 M95.1,182.4c-3,5.7,1,15.2,1,15.2l-3-1.2C83,189,95.1,182.4,95.1,182.4z M198,144.5c-0.1,8.3-1.3,16.6-3.1,24.7
		c-0.6,2.6-1,5.5-1.9,8c-1,2.7-2.1,3.2-4.2,4.8c-2.7,2.1-2.8,4.7-3,7.9c-0.5,14.6-5.3,29-11.9,41.9c-6.5,12.6-15,26.2-26.8,34.4
		c-10.4,7.3-22.8,8.6-34.8,5c-5.7-1.7-11.2-4.2-16.4-7.3c-3-5.5-5.6-12.9-8.7-16.5c-4.9-5.6-8.5-1.2-14.9-5.6
		c-6.3-4.4-16.8-20.6-14.3-29c1.3-4.3,4.2-4.2,6.7-3.1c2.2,4.8,6,11.7,11.2,16.3c0,0-2.3-9.4-1.2-12.2c1-2.4,2.7-13.4,35.3-10.7
		c0,0,0-0.1-0.1-0.2c1.2,0.1,2.9,0.2,4.9-0.4c3.9-1.1,3.5-5.1,6.5-6.5c2.9-1.3,6.5,0.5,6.5,0.5s3.8-1.5,1.8-4.1
		c-1.9-2.7-6.5,0.7-12.9,3.9s-11.6-1.3-11.6-1.3l0,0c-0.2-0.2-0.4-0.4-0.6-0.6c-2.4-1.9-6-7.6-2.3-12.7c3.5-4.8,5-21.5-4.1-29.5l0,0
		c0,0,14.2-2.9,16,0c1.8,2.9,0.9,5.4,0.9,5.4s-2.4-2.4-2.9-1.3c-0.5,1.1,2,7.2,2.4,8.1c0.4,0.9,5.1,10,9.1,12.9
		c1.9,1.4,4.3,3.5,6.7,5.1l0,0c0,0,3.7,3,3,6.7c-0.2,0.8,2.8-3.7,6.9,0c4.1,3.7,8.8,7.1,12.8,8s8,2.9,7.7,7.5
		c-0.4,4.6,3.7,2.2,2.9-3.8c-0.7-6-4-7.2-8.9-9.5c-4.9-2.3-9.7-4.4-12.3-7.6c0,0-8.6-2.6-12.3-5.7c-3.6-3.3-7.4-7.9-9.4-13.7
		c-2-5.9-2.4-10.5-1.7-13.9c0.3-1.1,2.3-1.5,4.2,0.1c2,1.7,3.2,3.5,3.7,4.5c0.5,1,2.8,3.5,6.8,3.7c4,0.1,16-0.7,17.2-1.4
		c1.2-0.7,1.9-1.9-2.3-0.5c-4.3,1.3-12.3-0.2-14.4-1c-2.1-0.7-2.1-2.8-2.1-2.8s1.6-0.6,3.2-0.1c1.6,0.5,11.2-1.1,12.9-2.1
		c1.7-1,4.1-2.2,5.7-2.2s4.5-0.8,4.5-0.8s-3.8-4.5-13.2-5.2c-9.4-0.7-17.1,5.5-20.2,5.2c-3.2-0.2-1.4-4.3-1.4-4.3
		c0.4-0.3,0.9-0.5,1.4-0.8c5.6-2.7,16.8-6.8,27.8-4.4c11,2.4,13.2,8.3,14.9,10.5c1.7,2.2,0.5,25.4-12.2,31c0,0,15.8-2.5,16.3-27.9
		c0,0,2.9-1.7,4.1-2.6c1.2-1,0-3.6,0-3.6l6.7-17.4c2.1,8,3.2,16.8,2.4,26.1c0,0,4-18.6,4.2-31.8C197.3,126.1,198.1,136.9,198,144.5z
		"/>
	<path class="st0" d="M151.4,208.9c-1.1,0.1-9.4,4.3-13.6,3.8c-4.3-0.5-11.3-1.2-16.2,0c-4.9,1.2-6.2,4.5-9.1,2.6
		c-2.9-1.9-9.5-1.5-14.7,0c-5.2,1.5-17.1,0-17.1,0c-0.2,3.3,8.6,12.2,16.4,18.4c7.8,6.2,10.5,3.3,18.5,4.6c8,1.3,14-2.7,18.6-5.8
		c0.5-0.4,1-0.8,1.4-1.3l0,0c0,0,6.6-6,14.4-19.2l0,0C151.2,210.5,152,208.9,151.4,208.9z M111.5,227.1c-3.4-0.6-8.9,0.4-12.6-1.2
		c-3.7-1.6-7.7-7.1-7.7-7.1s3.8,1.1,10.2,1.2c6.5,0.1,20.7-0.5,25-1.2c3.1-0.5,10.2-2,15.3-3.2c-1.8,2.1-4.9,5.6-7.6,7.2
		c-2,1.1-4.4,2.2-6.7,3C123.8,227.2,114.9,227.7,111.5,227.1z"/>
	<path class="st0" d="M127,243.2c-5.7,1.8-13.7,2.2-21.9,0c-8.1-2.2-10.3-7.7-12.8-9.3c-2.4-1.6-1.6,4,0,7.1c0,0,3.5,5.7,9.2,7.5
		c5.7,1.8,17.9,0.9,23.2,0c5.3-0.9,11.2-4.8,11.2-7.1C135.9,239,132.6,241.4,127,243.2z"/>
</g>
</svg>
